<svg xmlns="http://www.w3.org/2000/svg" height="not600.0000" stroke-opacity="1" viewBox="0.0 0.0 600.0 600.0" font-size="1" width="not600.0000" xmlns:xlink="http://www.w3.org/1999/xlink" stroke="rgb(0,0,0)" version="1.1"><defs></defs><g stroke-linejoin="miter" stroke-opacity="1.0" fill-opacity="0.0" stroke="rgb(255,0,0)" stroke-width="1.2" fill="rgb(0,0,0)" stroke-linecap="butt" stroke-miterlimit="10.0"><path d="M 280.9357,151.2165 l -130.9356,148.7835 "></path></g><g stroke-linejoin="miter" stroke-opacity="1.0" fill-opacity="0.0" stroke="rgb(0,128,0)" stroke-width="1.2" fill="rgb(0,0,0)" stroke-linecap="butt" stroke-miterlimit="10.0"><path d="M 169.4680,226.0989 l -19.4679,73.9011 "></path></g><g stroke-linejoin="miter" stroke-opacity="1.0" fill-opacity="0.0" stroke="rgb(0,0,255)" stroke-width="1.2" fill="rgb(0,0,0)" stroke-linecap="butt" stroke-miterlimit="10.0"><path d="M 449.9991,299.4920 l -104.3581,-142.3796 "></path></g><g stroke-linejoin="miter" stroke-opacity="1.0" fill-opacity="0.0" stroke="rgb(255,0,0)" stroke-width="1.2" fill="rgb(0,0,0)" stroke-linecap="butt" stroke-miterlimit="10.0"><path d="M 449.9991,299.4920 l -299.9990,0.5080 "></path></g><g stroke-linejoin="miter" stroke-opacity="1.0" fill-opacity="0.0" stroke="rgb(0,0,255)" stroke-width="1.2" fill="rgb(0,0,0)" stroke-linecap="butt" stroke-miterlimit="10.0"><path d="M 383.2473,175.2207 l -233.2473,124.7793 "></path></g><g stroke-linejoin="miter" stroke-opacity="1.0" fill-opacity="0.0" stroke="rgb(0,0,255)" stroke-width="1.2" fill="rgb(0,0,0)" stroke-linecap="butt" stroke-miterlimit="10.0"><path d="M 256.4067,156.4744 l -106.4066,143.5256 "></path></g><g stroke-linejoin="miter" stroke-opacity="1.0" fill-opacity="0.0" stroke="rgb(255,0,0)" stroke-width="1.2" fill="rgb(0,0,0)" stroke-linecap="butt" stroke-miterlimit="10.0"><path d="M 449.7519,291.3777 l -299.7519,8.6223 "></path></g><g stroke-linejoin="miter" stroke-opacity="1.0" fill-opacity="0.0" stroke="rgb(255,0,0)" stroke-width="1.2" fill="rgb(0,0,0)" stroke-linecap="butt" stroke-miterlimit="10.0"><path d="M 449.7932,307.8736 l -299.7931,-7.8736 "></path></g><g stroke-linejoin="miter" stroke-opacity="1.0" fill-opacity="0.0" stroke="rgb(255,0,0)" stroke-width="1.2" fill="rgb(0,0,0)" stroke-linecap="butt" stroke-miterlimit="10.0"><path d="M 306.7064,150.1500 l -156.7063,149.8500 "></path></g><g stroke-linejoin="miter" stroke-opacity="1.0" fill-opacity="0.0" stroke="rgb(0,0,255)" stroke-width="1.2" fill="rgb(0,0,0)" stroke-linecap="butt" stroke-miterlimit="10.0"><path d="M 346.8733,442.4882 l -1.2323,-285.3758 "></path></g><g stroke-linejoin="miter" stroke-opacity="1.0" fill-opacity="0.0" stroke="rgb(0,128,0)" stroke-width="1.2" fill="rgb(0,0,0)" stroke-linecap="butt" stroke-miterlimit="10.0"><path d="M 341.3134,155.8016 l -84.9067,0.6728 "></path></g><g stroke-linejoin="miter" stroke-opacity="1.0" fill-opacity="0.0" stroke="rgb(255,0,0)" stroke-width="1.2" fill="rgb(0,0,0)" stroke-linecap="butt" stroke-miterlimit="10.0"><path d="M 280.9357,151.2165 l 26.5802,298.5951 "></path></g><g stroke-linejoin="miter" stroke-opacity="1.0" fill-opacity="0.0" stroke="rgb(0,0,255)" stroke-width="1.2" fill="rgb(0,0,0)" stroke-linecap="butt" stroke-miterlimit="10.0"><path d="M 280.9357,151.2165 l -24.5290,5.2579 "></path></g><g stroke-linejoin="miter" stroke-opacity="1.0" fill-opacity="0.0" stroke="rgb(0,0,255)" stroke-width="1.2" fill="rgb(0,0,0)" stroke-linecap="butt" stroke-miterlimit="10.0"><path d="M 169.4680,226.0989 l 138.0479,223.7126 "></path></g><g stroke-linejoin="miter" stroke-opacity="1.0" fill-opacity="0.0" stroke="rgb(255,0,0)" stroke-width="1.2" fill="rgb(0,0,0)" stroke-linecap="butt" stroke-miterlimit="10.0"><path d="M 169.4680,226.0989 l 46.0285,197.8331 "></path></g><g stroke-linejoin="miter" stroke-opacity="1.0" fill-opacity="0.0" stroke="rgb(255,0,0)" stroke-width="1.2" fill="rgb(0,0,0)" stroke-linecap="butt" stroke-miterlimit="10.0"><path d="M 169.4680,226.0989 l 177.4053,216.3892 "></path></g><g stroke-linejoin="miter" stroke-opacity="1.0" fill-opacity="0.0" stroke="rgb(0,0,255)" stroke-width="1.2" fill="rgb(0,0,0)" stroke-linecap="butt" stroke-miterlimit="10.0"><path d="M 449.9991,299.4920 l -108.6857,-143.6904 "></path></g><g stroke-linejoin="miter" stroke-opacity="1.0" fill-opacity="0.0" stroke="rgb(255,0,0)" stroke-width="1.2" fill="rgb(0,0,0)" stroke-linecap="butt" stroke-miterlimit="10.0"><path d="M 449.9991,299.4920 l -169.0634,-148.2755 "></path></g><g stroke-linejoin="miter" stroke-opacity="1.0" fill-opacity="0.0" stroke="rgb(0,128,0)" stroke-width="1.2" fill="rgb(0,0,0)" stroke-linecap="butt" stroke-miterlimit="10.0"><path d="M 449.9991,299.4920 l -280.5311,-73.3930 "></path></g><g stroke-linejoin="miter" stroke-opacity="1.0" fill-opacity="0.0" stroke="rgb(0,0,255)" stroke-width="1.2" fill="rgb(0,0,0)" stroke-linecap="butt" stroke-miterlimit="10.0"><path d="M 449.9991,299.4920 l -66.7518,-124.2712 "></path></g><g stroke-linejoin="miter" stroke-opacity="1.0" fill-opacity="0.0" stroke="rgb(0,0,255)" stroke-width="1.2" fill="rgb(0,0,0)" stroke-linecap="butt" stroke-miterlimit="10.0"><path d="M 449.9991,299.4920 l -0.2472,-8.1143 "></path></g><g stroke-linejoin="miter" stroke-opacity="1.0" fill-opacity="0.0" stroke="rgb(255,0,0)" stroke-width="1.2" fill="rgb(0,0,0)" stroke-linecap="butt" stroke-miterlimit="10.0"><path d="M 449.9991,299.4920 l -143.2927,-149.3419 "></path></g><g stroke-linejoin="miter" stroke-opacity="1.0" fill-opacity="0.0" stroke="rgb(255,0,0)" stroke-width="1.2" fill="rgb(0,0,0)" stroke-linecap="butt" stroke-miterlimit="10.0"><path d="M 383.2473,175.2207 l -213.7794,50.8782 "></path></g><g stroke-linejoin="miter" stroke-opacity="1.0" fill-opacity="0.0" stroke="rgb(0,128,0)" stroke-width="1.2" fill="rgb(0,0,0)" stroke-linecap="butt" stroke-miterlimit="10.0"><path d="M 383.2473,175.2207 l -76.5410,-25.0707 "></path></g><g stroke-linejoin="miter" stroke-opacity="1.0" fill-opacity="0.0" stroke="rgb(255,0,0)" stroke-width="1.2" fill="rgb(0,0,0)" stroke-linecap="butt" stroke-miterlimit="10.0"><path d="M 383.2473,175.2207 l -167.7509,248.7113 "></path></g><g stroke-linejoin="miter" stroke-opacity="1.0" fill-opacity="0.0" stroke="rgb(255,0,0)" stroke-width="1.2" fill="rgb(0,0,0)" stroke-linecap="butt" stroke-miterlimit="10.0"><path d="M 256.4067,156.4744 l -86.9387,69.6246 "></path></g><g stroke-linejoin="miter" stroke-opacity="1.0" fill-opacity="0.0" stroke="rgb(0,0,255)" stroke-width="1.2" fill="rgb(0,0,0)" stroke-linecap="butt" stroke-miterlimit="10.0"><path d="M 256.4067,156.4744 l -40.9102,267.4576 "></path></g><g stroke-linejoin="miter" stroke-opacity="1.0" fill-opacity="0.0" stroke="rgb(255,0,0)" stroke-width="1.2" fill="rgb(0,0,0)" stroke-linecap="butt" stroke-miterlimit="10.0"><path d="M 256.4067,156.4744 l 90.4666,286.0138 "></path></g><g stroke-linejoin="miter" stroke-opacity="1.0" fill-opacity="0.0" stroke="rgb(255,0,0)" stroke-width="1.2" fill="rgb(0,0,0)" stroke-linecap="butt" stroke-miterlimit="10.0"><path d="M 256.4067,156.4744 l 99.3781,282.7666 "></path></g><g stroke-linejoin="miter" stroke-opacity="1.0" fill-opacity="0.0" stroke="rgb(0,0,255)" stroke-width="1.2" fill="rgb(0,0,0)" stroke-linecap="butt" stroke-miterlimit="10.0"><path d="M 449.7519,291.3777 l -108.4386,-135.5761 "></path></g><g stroke-linejoin="miter" stroke-opacity="1.0" fill-opacity="0.0" stroke="rgb(255,0,0)" stroke-width="1.2" fill="rgb(0,0,0)" stroke-linecap="butt" stroke-miterlimit="10.0"><path d="M 449.7519,291.3777 l -168.8162,-140.1612 "></path></g><g stroke-linejoin="miter" stroke-opacity="1.0" fill-opacity="0.0" stroke="rgb(0,128,0)" stroke-width="1.2" fill="rgb(0,0,0)" stroke-linecap="butt" stroke-miterlimit="10.0"><path d="M 449.7519,291.3777 l -280.2840,-65.2788 "></path></g><g stroke-linejoin="miter" stroke-opacity="1.0" fill-opacity="0.0" stroke="rgb(255,0,0)" stroke-width="1.2" fill="rgb(0,0,0)" stroke-linecap="butt" stroke-miterlimit="10.0"><path d="M 449.7519,291.3777 l -143.0456,-141.2277 "></path></g><g stroke-linejoin="miter" stroke-opacity="1.0" fill-opacity="0.0" stroke="rgb(0,0,255)" stroke-width="1.2" fill="rgb(0,0,0)" stroke-linecap="butt" stroke-miterlimit="10.0"><path d="M 449.7932,307.8736 l 0.2059,-8.3816 "></path></g><g stroke-linejoin="miter" stroke-opacity="1.0" fill-opacity="0.0" stroke="rgb(0,0,255)" stroke-width="1.2" fill="rgb(0,0,0)" stroke-linecap="butt" stroke-miterlimit="10.0"><path d="M 449.7932,307.8736 l -66.5458,-132.6529 "></path></g><g stroke-linejoin="miter" stroke-opacity="1.0" fill-opacity="0.0" stroke="rgb(0,0,255)" stroke-width="1.2" fill="rgb(0,0,0)" stroke-linecap="butt" stroke-miterlimit="10.0"><path d="M 449.7932,307.8736 l -0.0412,-16.4959 "></path></g><g stroke-linejoin="miter" stroke-opacity="1.0" fill-opacity="0.0" stroke="rgb(255,0,0)" stroke-width="1.2" fill="rgb(0,0,0)" stroke-linecap="butt" stroke-miterlimit="10.0"><path d="M 449.7932,307.8736 l -143.0868,-157.7236 "></path></g><g stroke-linejoin="miter" stroke-opacity="1.0" fill-opacity="0.0" stroke="rgb(255,0,0)" stroke-width="1.2" fill="rgb(0,0,0)" stroke-linecap="butt" stroke-miterlimit="10.0"><path d="M 306.7064,150.1500 l 0.8095,299.6615 "></path></g><g stroke-linejoin="miter" stroke-opacity="1.0" fill-opacity="0.0" stroke="rgb(0,0,255)" stroke-width="1.2" fill="rgb(0,0,0)" stroke-linecap="butt" stroke-miterlimit="10.0"><path d="M 306.7064,150.1500 l -25.7707,1.0664 "></path></g><g stroke-linejoin="miter" stroke-opacity="1.0" fill-opacity="0.0" stroke="rgb(0,0,255)" stroke-width="1.2" fill="rgb(0,0,0)" stroke-linecap="butt" stroke-miterlimit="10.0"><path d="M 306.7064,150.1500 l -137.2384,75.9489 "></path></g><g stroke-linejoin="miter" stroke-opacity="1.0" fill-opacity="0.0" stroke="rgb(0,128,0)" stroke-width="1.2" fill="rgb(0,0,0)" stroke-linecap="butt" stroke-miterlimit="10.0"><path d="M 306.7064,150.1500 l -91.2099,273.7819 "></path></g><g stroke-linejoin="miter" stroke-opacity="1.0" fill-opacity="0.0" stroke="rgb(0,0,255)" stroke-width="1.2" fill="rgb(0,0,0)" stroke-linecap="butt" stroke-miterlimit="10.0"><path d="M 215.4965,423.9320 l 234.5026,-124.4400 "></path></g><g stroke-linejoin="miter" stroke-opacity="1.0" fill-opacity="0.0" stroke="rgb(255,0,0)" stroke-width="1.2" fill="rgb(0,0,0)" stroke-linecap="butt" stroke-miterlimit="10.0"><path d="M 215.4965,423.9320 l 167.7509,-248.7113 "></path></g><g stroke-linejoin="miter" stroke-opacity="1.0" fill-opacity="0.0" stroke="rgb(0,0,255)" stroke-width="1.2" fill="rgb(0,0,0)" stroke-linecap="butt" stroke-miterlimit="10.0"><path d="M 215.4965,423.9320 l 234.2555,-132.5543 "></path></g><g stroke-linejoin="miter" stroke-opacity="1.0" fill-opacity="0.0" stroke="rgb(0,0,255)" stroke-width="1.2" fill="rgb(0,0,0)" stroke-linecap="butt" stroke-miterlimit="10.0"><path d="M 215.4965,423.9320 l 234.2967,-116.0584 "></path></g><g stroke-linejoin="miter" stroke-opacity="1.0" fill-opacity="0.0" stroke="rgb(0,0,255)" stroke-width="1.2" fill="rgb(0,0,0)" stroke-linecap="butt" stroke-miterlimit="10.0"><path d="M 215.4965,423.9320 l 140.2883,15.3090 "></path></g><g stroke-linejoin="miter" stroke-opacity="1.0" fill-opacity="0.0" stroke="rgb(0,0,255)" stroke-width="1.2" fill="rgb(0,0,0)" stroke-linecap="butt" stroke-miterlimit="10.0"><path d="M 346.8733,442.4882 l -5.5599,-286.6866 "></path></g><g stroke-linejoin="miter" stroke-opacity="1.0" fill-opacity="0.0" stroke="rgb(0,0,255)" stroke-width="1.2" fill="rgb(0,0,0)" stroke-linecap="butt" stroke-miterlimit="10.0"><path d="M 346.8733,442.4882 l 103.1258,-142.9962 "></path></g><g stroke-linejoin="miter" stroke-opacity="1.0" fill-opacity="0.0" stroke="rgb(0,0,255)" stroke-width="1.2" fill="rgb(0,0,0)" stroke-linecap="butt" stroke-miterlimit="10.0"><path d="M 346.8733,442.4882 l 36.3740,-267.2674 "></path></g><g stroke-linejoin="miter" stroke-opacity="1.0" fill-opacity="0.0" stroke="rgb(255,0,0)" stroke-width="1.2" fill="rgb(0,0,0)" stroke-linecap="butt" stroke-miterlimit="10.0"><path d="M 346.8733,442.4882 l -90.4666,-286.0138 "></path></g><g stroke-linejoin="miter" stroke-opacity="1.0" fill-opacity="0.0" stroke="rgb(0,0,255)" stroke-width="1.2" fill="rgb(0,0,0)" stroke-linecap="butt" stroke-miterlimit="10.0"><path d="M 346.8733,442.4882 l 8.9115,-3.2472 "></path></g><g stroke-linejoin="miter" stroke-opacity="1.0" fill-opacity="0.0" stroke="rgb(0,0,255)" stroke-width="1.2" fill="rgb(0,0,0)" stroke-linecap="butt" stroke-miterlimit="10.0"><path d="M 355.7848,439.2410 l -14.4714,-283.4394 "></path></g><g stroke-linejoin="miter" stroke-opacity="1.0" fill-opacity="0.0" stroke="rgb(0,0,255)" stroke-width="1.2" fill="rgb(0,0,0)" stroke-linecap="butt" stroke-miterlimit="10.0"><path d="M 355.7848,439.2410 l 27.4626,-264.0202 "></path></g><g stroke-linejoin="miter" stroke-opacity="1.0" fill-opacity="0.0" stroke="rgb(255,0,0)" stroke-width="1.2" fill="rgb(0,0,0)" stroke-linecap="butt" stroke-miterlimit="10.0"><path d="M 355.7848,439.2410 l -99.3781,-282.7666 "></path></g><g stroke-linejoin="miter" stroke-opacity="1.0" fill-opacity="0.0" stroke="rgb(0,0,255)" stroke-width="1.2" fill="rgb(0,0,0)" stroke-linecap="butt" stroke-miterlimit="10.0"><path d="M 355.7848,439.2410 l 93.9672,-147.8633 "></path></g><g stroke-linejoin="miter" stroke-opacity="1.0" fill-opacity="0.0" stroke="rgb(0,0,255)" stroke-width="1.2" fill="rgb(0,0,0)" stroke-linecap="butt" stroke-miterlimit="10.0"><path d="M 355.7848,439.2410 l 94.0084,-131.3674 "></path></g><g stroke-linejoin="miter" stroke-opacity="1.0" fill-opacity="0.0" stroke="rgb(255,0,0)" stroke-width="1.2" fill="rgb(0,0,0)" stroke-linecap="butt" stroke-miterlimit="10.0"><path d="M 307.5159,449.8115 l -26.5802,-298.5951 "></path></g><g stroke-linejoin="miter" stroke-opacity="1.0" fill-opacity="0.0" stroke="rgb(255,0,0)" stroke-width="1.2" fill="rgb(0,0,0)" stroke-linecap="butt" stroke-miterlimit="10.0"><path d="M 307.5159,449.8115 l 142.4832,-150.3196 "></path></g><g stroke-linejoin="miter" stroke-opacity="1.0" fill-opacity="0.0" stroke="rgb(0,0,255)" stroke-width="1.2" fill="rgb(0,0,0)" stroke-linecap="butt" stroke-miterlimit="10.0"><path d="M 307.5159,449.8115 l 75.7314,-274.5908 "></path></g><g stroke-linejoin="miter" stroke-opacity="1.0" fill-opacity="0.0" stroke="rgb(255,0,0)" stroke-width="1.2" fill="rgb(0,0,0)" stroke-linecap="butt" stroke-miterlimit="10.0"><path d="M 307.5159,449.8115 l 142.2360,-158.4338 "></path></g><g stroke-linejoin="miter" stroke-opacity="1.0" fill-opacity="0.0" stroke="rgb(255,0,0)" stroke-width="1.2" fill="rgb(0,0,0)" stroke-linecap="butt" stroke-miterlimit="10.0"><path d="M 307.5159,449.8115 l 142.2773,-141.9379 "></path></g><g stroke-linejoin="miter" stroke-opacity="1.0" fill-opacity="0.0" stroke="rgb(255,0,0)" stroke-width="1.2" fill="rgb(0,0,0)" stroke-linecap="butt" stroke-miterlimit="10.0"><path d="M 307.5159,449.8115 l -0.8095,-299.6615 "></path></g><g stroke-linejoin="miter" stroke-opacity="1.0" fill-opacity="1.0" font-size="14.999994766540889px" stroke="rgb(0,0,0)" stroke-width="2.4" fill="rgb(0,0,0)" stroke-linecap="butt" stroke-miterlimit="10.0"><text dominant-baseline="middle" transform="matrix(1.0000,-0.0000,0.0000,1.0000,353.3437,81.4150)" stroke="none" text-anchor="middle">MC</text></g><g stroke-linejoin="miter" stroke-opacity="1.0" fill-opacity="1.0" font-size="14.999994766540889px" stroke="rgb(0,0,0)" stroke-width="2.4" fill="rgb(0,0,0)" stroke-linecap="butt" stroke-miterlimit="10.0"><text dominant-baseline="middle" transform="matrix(1.0000,-0.0000,0.0000,1.0000,75.5482,315.6952)" stroke="none" text-anchor="middle">Asc</text></g><a xlink:href="#house-XII"><g stroke-linejoin="miter" stroke-opacity="1.0" fill-opacity="0.0" stroke="rgb(128,128,128)" stroke-width="1.2" fill="rgb(0,0,0)" stroke-linecap="butt" stroke-miterlimit="10.0"><path d="M 174.0438,218.5444 l -75.5737,-48.8734 c -25.1111,38.8297 -38.4700,84.0871 -38.4700 130.3290l 90.0000,-0.0000 c 0.0000,-28.9012 8.3493,-57.1870 24.0437 -81.4556Z"></path></g></a><g stroke-linejoin="miter" stroke-opacity="1.0" fill-opacity="1.0" font-size="14.999994766540889px" stroke="rgb(0,0,0)" stroke-width="2.4" fill="rgb(128,128,128)" stroke-linecap="butt" stroke-miterlimit="10.0"><text dominant-baseline="middle" transform="matrix(1.0000,-0.0000,0.0000,1.0000,154.1662,222.8154)" stroke="none" text-anchor="middle">12</text></g><a xlink:href="#house-XI"><g stroke-linejoin="miter" stroke-opacity="1.0" fill-opacity="0.0" stroke="rgb(128,128,128)" stroke-width="1.2" fill="rgb(0,0,0)" stroke-linecap="butt" stroke-miterlimit="10.0"><path d="M 251.5906,158.0264 l -29.0457,-85.1842 c -51.0664,17.4124 -94.7761,51.5237 -124.0748 96.8288l 75.5737,48.8734 c 18.3117,-28.3157 45.6303,-49.6353 77.5468 -60.5180Z"></path></g></a><g stroke-linejoin="miter" stroke-opacity="1.0" fill-opacity="1.0" font-size="14.999994766540889px" stroke="rgb(0,0,0)" stroke-width="2.4" fill="rgb(128,128,128)" stroke-linecap="butt" stroke-miterlimit="10.0"><text dominant-baseline="middle" transform="matrix(1.0000,-0.0000,0.0000,1.0000,233.3411,149.0644)" stroke="none" text-anchor="middle">11</text></g><a xlink:href="#house-X"><g stroke-linejoin="miter" stroke-opacity="1.0" fill-opacity="0.0" stroke="rgb(128,128,128)" stroke-width="1.2" fill="rgb(0,0,0)" stroke-linecap="butt" stroke-miterlimit="10.0"><path d="M 345.6410,157.1123 l 27.3846,-85.7326 c -49.0198,-15.6579 -101.7744,-15.1452 -150.4807 1.4625l 29.0457,85.1842 c 30.4414,-10.3798 63.4130,-10.7002 94.0504 -0.9140Z"></path></g></a><g stroke-linejoin="miter" stroke-opacity="1.0" fill-opacity="1.0" font-size="14.999994766540889px" stroke="rgb(0,0,0)" stroke-width="2.4" fill="rgb(128,128,128)" stroke-linecap="butt" stroke-miterlimit="10.0"><text dominant-baseline="middle" transform="matrix(1.0000,-0.0000,0.0000,1.0000,336.3152,139.0460)" stroke="none" text-anchor="middle">10</text></g><a xlink:href="#house-IX"><g stroke-linejoin="miter" stroke-opacity="1.0" fill-opacity="0.0" stroke="rgb(128,128,128)" stroke-width="1.2" fill="rgb(0,0,0)" stroke-linecap="butt" stroke-miterlimit="10.0"><path d="M 409.9400,197.9550 l 65.9640,-61.2270 c -28.0984,-30.2723 -63.5338,-52.7808 -102.8784 -65.3482l -27.3846,85.7326 c 24.5904,7.8546 46.7375,21.9224 64.2990 40.8426Z"></path></g></a><g stroke-linejoin="miter" stroke-opacity="1.0" fill-opacity="1.0" font-size="14.999994766540889px" stroke="rgb(0,0,0)" stroke-width="2.4" fill="rgb(128,128,128)" stroke-linecap="butt" stroke-miterlimit="10.0"><text dominant-baseline="middle" transform="matrix(1.0000,-0.0000,0.0000,1.0000,410.6906,177.6375)" stroke="none" text-anchor="middle">9</text></g><a xlink:href="#house-VIII"><g stroke-linejoin="miter" stroke-opacity="1.0" fill-opacity="0.0" stroke="rgb(128,128,128)" stroke-width="1.2" fill="rgb(0,0,0)" stroke-linecap="butt" stroke-miterlimit="10.0"><path d="M 441.2059,249.3949 l 84.7236,-30.3630 c -10.9424,-30.5331 -27.9602,-58.5315 -50.0255 -82.3039l -65.9640,61.2270 c 13.7908,14.8578 24.4270,32.3568 31.2659 51.4400Z"></path></g></a><g stroke-linejoin="miter" stroke-opacity="1.0" fill-opacity="1.0" font-size="14.999994766540889px" stroke="rgb(0,0,0)" stroke-width="2.4" fill="rgb(128,128,128)" stroke-linecap="butt" stroke-miterlimit="10.0"><text dominant-baseline="middle" transform="matrix(1.0000,-0.0000,0.0000,1.0000,449.8839,231.0087)" stroke="none" text-anchor="middle">8</text></g><a xlink:href="#house-VII"><g stroke-linejoin="miter" stroke-opacity="1.0" fill-opacity="0.0" stroke="rgb(128,128,128)" stroke-width="1.2" fill="rgb(0,0,0)" stroke-linecap="butt" stroke-miterlimit="10.0"><path d="M 449.9999,300.0000 l 90.0000,0.0000 c 0.0000,-27.5976 -4.7599,-54.9885 -14.0704 -80.9681l -84.7236,30.3630 c 5.8191,16.2373 8.7940,33.3566 8.7940 50.6051Z"></path></g></a><g stroke-linejoin="miter" stroke-opacity="1.0" fill-opacity="1.0" font-size="14.999994766540889px" stroke="rgb(0,0,0)" stroke-width="2.4" fill="rgb(128,128,128)" stroke-linecap="butt" stroke-miterlimit="10.0"><text dominant-baseline="middle" transform="matrix(1.0000,-0.0000,0.0000,1.0000,464.3721,285.6193)" stroke="none" text-anchor="middle">7</text></g><a xlink:href="#house-VI"><g stroke-linejoin="miter" stroke-opacity="1.0" fill-opacity="0.0" stroke="rgb(128,128,128)" stroke-width="1.2" fill="rgb(0,0,0)" stroke-linecap="butt" stroke-miterlimit="10.0"><path d="M 425.9562,381.4556 l 75.5737,48.8734 c 25.1111,-38.8297 38.4700,-84.0871 38.4700 -130.3290l -90.0000,-0.0000 c -0.0000,28.9012 -8.3493,57.1870 -24.0437 81.4556Z"></path></g></a><g stroke-linejoin="miter" stroke-opacity="1.0" fill-opacity="1.0" font-size="14.999994766540889px" stroke="rgb(0,0,0)" stroke-width="2.4" fill="rgb(128,128,128)" stroke-linecap="butt" stroke-miterlimit="10.0"><text dominant-baseline="middle" transform="matrix(1.0000,-0.0000,0.0000,1.0000,445.8338,377.1846)" stroke="none" text-anchor="middle">6</text></g><a xlink:href="#house-V"><g stroke-linejoin="miter" stroke-opacity="1.0" fill-opacity="0.0" stroke="rgb(128,128,128)" stroke-width="1.2" fill="rgb(0,0,0)" stroke-linecap="butt" stroke-miterlimit="10.0"><path d="M 348.4094,441.9736 l 29.0457,85.1842 c 51.0664,-17.4124 94.7761,-51.5237 124.0748 -96.8288l -75.5737,-48.8734 c -18.3117,28.3157 -45.6303,49.6353 -77.5468 60.5180Z"></path></g></a><g stroke-linejoin="miter" stroke-opacity="1.0" fill-opacity="1.0" font-size="14.999994766540889px" stroke="rgb(0,0,0)" stroke-width="2.4" fill="rgb(128,128,128)" stroke-linecap="butt" stroke-miterlimit="10.0"><text dominant-baseline="middle" transform="matrix(1.0000,-0.0000,0.0000,1.0000,366.6589,450.9356)" stroke="none" text-anchor="middle">5</text></g><a xlink:href="#house-IV"><g stroke-linejoin="miter" stroke-opacity="1.0" fill-opacity="0.0" stroke="rgb(128,128,128)" stroke-width="1.2" fill="rgb(0,0,0)" stroke-linecap="butt" stroke-miterlimit="10.0"><path d="M 254.3590,442.8877 l -27.3846,85.7326 c 49.0198,15.6579 101.7744,15.1452 150.4807 -1.4625l -29.0457,-85.1842 c -30.4414,10.3798 -63.4130,10.7002 -94.0504 0.9140Z"></path></g></a><g stroke-linejoin="miter" stroke-opacity="1.0" fill-opacity="1.0" font-size="14.999994766540889px" stroke="rgb(0,0,0)" stroke-width="2.4" fill="rgb(128,128,128)" stroke-linecap="butt" stroke-miterlimit="10.0"><text dominant-baseline="middle" transform="matrix(1.0000,-0.0000,0.0000,1.0000,263.6848,460.9540)" stroke="none" text-anchor="middle">4</text></g><a xlink:href="#house-III"><g stroke-linejoin="miter" stroke-opacity="1.0" fill-opacity="0.0" stroke="rgb(128,128,128)" stroke-width="1.2" fill="rgb(0,0,0)" stroke-linecap="butt" stroke-miterlimit="10.0"><path d="M 190.0600,402.0450 l -65.9640,61.2270 c 28.0984,30.2723 63.5338,52.7808 102.8784 65.3482l 27.3846,-85.7326 c -24.5904,-7.8546 -46.7375,-21.9224 -64.2990 -40.8426Z"></path></g></a><g stroke-linejoin="miter" stroke-opacity="1.0" fill-opacity="1.0" font-size="14.999994766540889px" stroke="rgb(0,0,0)" stroke-width="2.4" fill="rgb(128,128,128)" stroke-linecap="butt" stroke-miterlimit="10.0"><text dominant-baseline="middle" transform="matrix(1.0000,-0.0000,0.0000,1.0000,189.3094,422.3625)" stroke="none" text-anchor="middle">3</text></g><a xlink:href="#house-II"><g stroke-linejoin="miter" stroke-opacity="1.0" fill-opacity="0.0" stroke="rgb(128,128,128)" stroke-width="1.2" fill="rgb(0,0,0)" stroke-linecap="butt" stroke-miterlimit="10.0"><path d="M 158.7941,350.6051 l -84.7236,30.3630 c 10.9424,30.5331 27.9602,58.5315 50.0255 82.3039l 65.9640,-61.2270 c -13.7908,-14.8578 -24.4270,-32.3568 -31.2659 -51.4400Z"></path></g></a><g stroke-linejoin="miter" stroke-opacity="1.0" fill-opacity="1.0" font-size="14.999994766540889px" stroke="rgb(0,0,0)" stroke-width="2.4" fill="rgb(128,128,128)" stroke-linecap="butt" stroke-miterlimit="10.0"><text dominant-baseline="middle" transform="matrix(1.0000,-0.0000,0.0000,1.0000,150.1161,368.9913)" stroke="none" text-anchor="middle">2</text></g><a xlink:href="#house-I"><g stroke-linejoin="miter" stroke-opacity="1.0" fill-opacity="0.0" stroke="rgb(128,128,128)" stroke-width="1.2" fill="rgb(0,0,0)" stroke-linecap="butt" stroke-miterlimit="10.0"><path d="M 150.0001,300.0000 l -90.0000,0.0000 c 0.0000,27.5976 4.7599,54.9885 14.0704 80.9681l 84.7236,-30.3630 c -5.8191,-16.2373 -8.7940,-33.3566 -8.7940 -50.6051Z"></path></g></a><g stroke-linejoin="miter" stroke-opacity="1.0" fill-opacity="1.0" font-size="14.999994766540889px" stroke="rgb(0,0,0)" stroke-width="2.4" fill="rgb(128,128,128)" stroke-linecap="butt" stroke-miterlimit="10.0"><text dominant-baseline="middle" transform="matrix(1.0000,-0.0000,0.0000,1.0000,135.6279,314.3807)" stroke="none" text-anchor="middle">1</text></g><g stroke-linejoin="miter" stroke-opacity="1.0" fill-opacity="1.0" font-size="14.999994766540889px" stroke="rgb(0,0,0)" stroke-width="2.4" fill="rgb(0,0,0)" stroke-linecap="butt" stroke-miterlimit="10.0"><text dominant-baseline="middle" transform="matrix(1.0000,-0.0000,0.0000,1.0000,399.0643,151.5127)" stroke="none" text-anchor="middle">r</text></g><g stroke-linejoin="miter" stroke-opacity="1.0" fill-opacity="0.0" stroke="rgb(0,0,0)" stroke-width="1.2" fill="rgb(0,0,0)" stroke-linecap="butt" stroke-miterlimit="10.0"><path d="M 433.1957,100.3532 l -4.9948,7.4868 "></path></g><g stroke-linejoin="miter" stroke-opacity="1.0" fill-opacity="0.0" stroke="rgb(0,0,0)" stroke-width="1.2" fill="rgb(0,0,0)" stroke-linecap="butt" stroke-miterlimit="10.0"><path d="M 383.2473,175.2207 l 4.9948,-7.4868 "></path></g><a xlink:href="#Neptune"><g><g stroke-linejoin="miter" stroke-opacity="1.0" fill-opacity="1.0" stroke="rgb(0,0,0)" stroke-width="0.5" fill="rgb(0,0,0)" stroke-linecap="butt" stroke-miterlimit="10.0"><path d="M 399.4236,142.9788 ZM 408.8298,143.9781 l -0.0652,2.6720 h -1.0427 l -0.0434,-2.6720 h -2.3244 v -0.9993 h 2.3027 l -0.0217,-1.6075 l 0.0000,-0.0217 c -3.9754,-0.3910 -5.5829,-3.1499 -5.5829 -7.1253c 0.0000,-0.4562 -0.1303,-0.6300 -0.3259 -0.6300c -0.2607,-0.0000 -0.6517,0.3476 -0.9558 0.6951l -0.7169,-0.0652 l 3.2802,-3.8233 c 0.0000,-0.0000 0.1738,0.0000 0.1738 -0.0217l 0.0000,3.8450 c 0.0000,3.3671 0.8689,5.8653 4.1057 6.1043l -0.1521,-8.2983 c -0.0000,-0.5431 -0.1086,-0.8038 -0.2824 -0.8038c -0.1955,0.0000 -0.5214,0.3041 -0.9776 0.8689l -0.7169,-0.0652 l 2.8240,-3.1064 l 2.7154,3.1064 l -0.7603,0.0652 c -0.4562,-0.5648 -0.7603,-0.8689 -0.9341 -0.8689c -0.1738,-0.0000 -0.2390,0.2607 -0.2390 0.8038l -0.1955,8.2983 c 3.1716,-0.2607 4.1057,-2.9327 4.1057 -6.1912v -3.7799 c 0.0217,0.0000 0.0652,-0.0000 0.0869 -0.0217l 3.3020,3.8016 l -0.7603,0.0652 c -0.2390,-0.3041 -0.6083,-0.6951 -0.8689 -0.6951c -0.1738,-0.0000 -0.3041,0.1738 -0.3041 0.6300c 0.0000,3.8450 -1.6075,6.8211 -5.5829 7.2122l -0.0217,1.6293 h 2.3027 v 0.9993 h -2.3244 Z"></path></g><title>Neptune</title></g></a><g stroke-linejoin="miter" stroke-opacity="1.0" fill-opacity="0.0" stroke="rgb(0,0,0)" stroke-width="1.2" fill="rgb(0,0,0)" stroke-linecap="butt" stroke-miterlimit="10.0"><path d="M 539.6031,286.2043 l -8.9851,0.5173 "></path></g><g stroke-linejoin="miter" stroke-opacity="1.0" fill-opacity="0.0" stroke="rgb(0,0,0)" stroke-width="1.2" fill="rgb(0,0,0)" stroke-linecap="butt" stroke-miterlimit="10.0"><path d="M 449.7519,291.3777 l 8.9851,-0.5173 "></path></g><a xlink:href="#Saturn"><g><g stroke-linejoin="miter" stroke-opacity="1.0" fill-opacity="1.0" stroke="rgb(0,0,0)" stroke-width="0.5" fill="rgb(0,0,0)" stroke-linecap="butt" stroke-miterlimit="10.0"><path d="M 489.1272,293.6788 ZM 491.7774,280.4275 l 1.0427,-0.2172 l 0.4996,0.0217 v 1.9768 h 2.0637 c 0.2390,-0.0000 0.3259,0.1086 0.3259 0.2824c 0.0000,0.2607 -0.3041,0.7386 -0.5865 0.7386h -1.8030 v 3.6278 c 0.5865,-0.7820 1.9768,-1.5206 3.0630 -1.5206c 1.5206,-0.0000 2.9978,0.9341 2.9978 2.7806c 0.0000,1.0427 -0.6517,2.4765 -1.1079 3.3237c -0.4127,0.7820 -0.7169,2.1723 -0.7169 3.1282c 0.0000,1.1079 0.3693,1.7379 1.3468 2.5634l -0.1738,0.2390 l -1.3903,-0.1738 c -0.8038,-0.7169 -1.2382,-1.4772 -1.2382 -2.6285c 0.0000,-1.0644 0.6517,-2.4330 0.9993 -3.1716c 0.3910,-0.8038 0.8038,-2.1289 0.8038 -3.1933c 0.0000,-0.9993 -0.8907,-1.8465 -1.6293 -1.8465c -1.3686,-0.0000 -2.2810,0.6083 -2.9761 1.6075v 5.4960 l -1.2817,0.6734 l -0.2390,-0.3910 l 0.0000,-10.5141 l -1.4772,0.0000 c -0.2172,-0.0000 -0.3259,-0.1955 -0.3259 -0.3910c 0.0000,-0.3476 0.2824,-0.6300 0.5214 -0.6300h 1.2817 v -1.7813 Z"></path></g><title>Saturn</title></g></a><g stroke-linejoin="miter" stroke-opacity="1.0" fill-opacity="0.0" stroke="rgb(0,0,0)" stroke-width="1.2" fill="rgb(0,0,0)" stroke-linecap="butt" stroke-miterlimit="10.0"><path d="M 539.9985,299.1871 l -8.9999,0.0305 "></path></g><g stroke-linejoin="miter" stroke-opacity="1.0" fill-opacity="0.0" stroke="rgb(0,0,0)" stroke-width="1.2" fill="rgb(0,0,0)" stroke-linecap="butt" stroke-miterlimit="10.0"><path d="M 449.9991,299.4920 l 8.9999,-0.0305 "></path></g><a xlink:href="#Pluto"><g><g stroke-linejoin="miter" stroke-opacity="1.0" fill-opacity="1.0" stroke="rgb(0,0,0)" stroke-width="0.5" fill="rgb(0,0,0)" stroke-linecap="butt" stroke-miterlimit="10.0"><path d="M 489.5680,305.1071 ZM 495.4985,299.2635 l 0.0000,6.1912 l 3.7799,-0.1303 l 0.0869,0.2824 l -0.1955,0.7820 l -5.2136,0.1086 v -7.2773 l -1.7813,-0.0652 v 5.8001 l -0.9993,0.4562 l -0.5431,-0.3041 l 0.0000,-12.7516 l 4.5402,-0.1738 c 2.2158,-0.0000 3.8885,1.0862 3.8885 3.2151c 0.0000,2.2375 -1.5206,3.8016 -3.5626 3.8668ZM 495.4985,299.2635 ZM 497.4753,295.4185 c 0.0000,-1.6510 -1.4555,-2.1723 -2.4330 -2.1723l -2.8675,0.1738 l 0.0000,4.6705 l 1.7813,0.0652 v -2.1072 l 1.1079,-0.3693 l 0.4345,0.0869 v 2.4113 c 1.1731,-0.1955 1.9768,-1.4120 1.9768 -2.7589Z"></path></g><title>Pluto</title></g></a><g stroke-linejoin="miter" stroke-opacity="1.0" fill-opacity="0.0" stroke="rgb(0,0,0)" stroke-width="1.2" fill="rgb(0,0,0)" stroke-linecap="butt" stroke-miterlimit="10.0"><path d="M 539.6691,312.5978 l -8.9876,-0.4724 "></path></g><g stroke-linejoin="miter" stroke-opacity="1.0" fill-opacity="0.0" stroke="rgb(0,0,0)" stroke-width="1.2" fill="rgb(0,0,0)" stroke-linecap="butt" stroke-miterlimit="10.0"><path d="M 449.7932,307.8736 l 8.9876,0.4724 "></path></g><a xlink:href="#Jupiter"><g><g stroke-linejoin="miter" stroke-opacity="1.0" fill-opacity="1.0" stroke="rgb(0,0,0)" stroke-width="0.5" fill="rgb(0,0,0)" stroke-linecap="butt" stroke-miterlimit="10.0"><path d="M 487.6167,315.1343 ZM 491.7224,303.6861 c -0.9776,-0.0000 -1.4555,0.1303 -1.4555 0.7820c 0.0000,0.2607 0.0434,0.3693 0.0652 0.4562c 0.0434,0.0652 0.0652,0.2390 0.0652 0.3910c -0.0000,0.2824 -0.2172,0.7169 -0.8472 0.7169c -0.5214,-0.0000 -0.8689,-0.3476 -0.8689 -0.8689c 0.0000,-1.2817 1.2382,-2.3678 3.2368 -2.3678c 2.2592,0.0000 3.3888,2.4982 3.3888 4.7791c 0.0000,2.0420 -0.9993,3.8668 -1.8899 4.5185h 4.2361 c 0.0869,0.0000 0.1303,-0.0652 0.1303 -0.1303v -8.7328 l 1.0644,-0.2390 l 0.4779,0.0434 l -0.0000,9.0586 l 1.2817,0.0217 c 0.1086,0.0652 0.1738,0.2824 0.1738 0.4779c 0.0000,0.1955 -0.0434,0.3476 -0.1303 0.4127l -1.3251,0.0434 v 3.9537 l -1.3034,0.6734 l -0.2390,-0.3910 l 0.0000,-4.1057 c 0.0000,-0.0434 -0.0434,-0.0869 -0.1303 -0.0869l -7.9073,0.1955 c -0.0217,-0.0000 -0.0869,-0.1086 -0.0869 -0.2172v -0.4562 c 0.0000,-0.1738 0.3259,-0.3476 0.4996 -0.3476l 0.0217,0.0000 c 0.4562,-0.0000 1.3251,-0.1955 1.6944 -0.3476c 1.2600,-0.5214 1.9334,-2.0420 1.9334 -3.8668c 0.0000,-1.6944 -0.6734,-4.3664 -2.0854 -4.3664Z"></path></g><title>Jupiter</title></g></a><g stroke-linejoin="miter" stroke-opacity="1.0" fill-opacity="0.0" stroke="rgb(0,0,0)" stroke-width="1.2" fill="rgb(0,0,0)" stroke-linecap="butt" stroke-miterlimit="10.0"><path d="M 389.2556,522.7855 l -3.3471,-8.3545 "></path></g><g stroke-linejoin="miter" stroke-opacity="1.0" fill-opacity="0.0" stroke="rgb(0,0,0)" stroke-width="1.2" fill="rgb(0,0,0)" stroke-linecap="butt" stroke-miterlimit="10.0"><path d="M 355.7848,439.2410 l 3.3471,8.3545 "></path></g><a xlink:href="#Moon"><g><g stroke-linejoin="miter" stroke-opacity="1.0" fill-opacity="1.0" stroke="rgb(0,0,0)" stroke-width="0.5" fill="rgb(0,0,0)" stroke-linecap="butt" stroke-miterlimit="10.0"><path d="M 367.1111,486.9655 ZM 369.6744,487.9213 c 3.9971,-0.0000 6.7125,-3.4975 6.7125 -6.9732c 0.0000,-3.7147 -3.4106,-6.8211 -6.1043 -6.8211c 2.2158,1.2600 4.0405,3.7147 4.0405 6.8211c 0.0000,3.3237 -1.9117,5.6264 -4.6488 6.9732ZM 369.6744,487.9213 ZM 367.7193,473.6925 c 0.5214,-0.1303 1.6510,-0.2824 2.1941 -0.2824c 4.6705,-0.0000 7.5815,3.5192 7.5815 7.6249c 0.0000,3.9102 -3.3237,7.5815 -7.7770 7.5815c -1.0862,-0.0000 -1.6510,-0.1303 -2.1723 -0.3693c 2.6937,-0.6517 5.6915,-3.5192 5.6915 -7.2773c 0.0000,-3.5844 -2.8240,-6.5822 -5.5177 -7.2773Z"></path></g><title>Moon</title></g></a><g stroke-linejoin="miter" stroke-opacity="1.0" fill-opacity="1.0" font-size="14.999994766540889px" stroke="rgb(0,0,0)" stroke-width="2.4" fill="rgb(0,0,0)" stroke-linecap="butt" stroke-miterlimit="10.0"><text dominant-baseline="middle" transform="matrix(1.0000,-0.0000,0.0000,1.0000,355.7792,469.5609)" stroke="none" text-anchor="middle">r</text></g><g stroke-linejoin="miter" stroke-opacity="1.0" fill-opacity="0.0" stroke="rgb(0,0,0)" stroke-width="1.2" fill="rgb(0,0,0)" stroke-linecap="butt" stroke-miterlimit="10.0"><path d="M 374.9973,527.9811 l -2.8124,-8.5493 "></path></g><g stroke-linejoin="miter" stroke-opacity="1.0" fill-opacity="0.0" stroke="rgb(0,0,0)" stroke-width="1.2" fill="rgb(0,0,0)" stroke-linecap="butt" stroke-miterlimit="10.0"><path d="M 346.8733,442.4882 l 2.8124,8.5493 "></path></g><a xlink:href="#Mercury"><g><g stroke-linejoin="miter" stroke-opacity="1.0" fill-opacity="1.0" stroke="rgb(0,0,0)" stroke-width="0.5" fill="rgb(0,0,0)" stroke-linecap="butt" stroke-miterlimit="10.0"><path d="M 354.8745,490.9587 ZM 360.9353,480.0970 c -2.0854,-0.0000 -3.7147,1.6727 -3.7147 3.6930c 0.0000,2.0203 1.5641,3.7364 3.7147 3.7364c 2.1506,-0.0000 3.7147,-1.7161 3.7147 -3.7364c 0.0000,-1.9768 -1.5858,-3.6930 -3.7147 -3.6930ZM 360.9353,480.0970 ZM 360.2836,488.5474 c -2.7371,-0.3910 -4.1492,-2.6937 -4.1492 -4.7574c 0.0000,-1.8248 1.0210,-3.4757 2.6285 -4.2795c -1.5858,-0.8689 -2.1506,-2.7371 -2.1506 -3.6713l 1.0862,-0.0000 c -0.0000,1.4337 1.3468,3.1499 3.2368 3.1499c 2.2375,-0.0000 3.2585,-2.0637 3.2585 -3.1499l 1.0862,-0.0000 c 0.0000,1.0862 -0.6951,2.8458 -2.1506 3.6713c 1.6510,0.8255 2.6068,2.5851 2.6068 4.2795c 0.0000,2.2810 -1.6293,4.4098 -4.1709 4.7574l -0.0652,2.4113 h 2.3027 v 0.9993 h -2.3244 l -0.0652,2.6720 h -1.0210 l -0.0434,-2.6720 h -2.3244 v -0.9993 h 2.3027 Z"></path></g><title>Mercury</title></g></a><g stroke-linejoin="miter" stroke-opacity="1.0" fill-opacity="0.0" stroke="rgb(0,0,0)" stroke-width="1.2" fill="rgb(0,0,0)" stroke-linecap="butt" stroke-miterlimit="10.0"><path d="M 312.0254,539.6985 l -0.4510,-8.9887 "></path></g><g stroke-linejoin="miter" stroke-opacity="1.0" fill-opacity="0.0" stroke="rgb(0,0,0)" stroke-width="1.2" fill="rgb(0,0,0)" stroke-linecap="butt" stroke-miterlimit="10.0"><path d="M 307.5159,449.8115 l 0.4510,8.9887 "></path></g><a xlink:href="#Sun"><g><g stroke-linejoin="miter" stroke-opacity="1.0" fill-opacity="1.0" stroke="rgb(0,0,0)" stroke-width="0.5" fill="rgb(0,0,0)" stroke-linecap="butt" stroke-miterlimit="10.0"><path d="M 302.2544,500.9896 ZM 304.9698,494.7550 c -0.0000,-2.5851 2.0420,-4.8009 4.8226 -4.8009c 2.9761,-0.0000 4.7791,2.4547 4.7791 4.8009c 0.0000,2.6937 -2.2158,4.8009 -4.7574 4.8009c -2.9109,-0.0000 -4.8443,-2.3244 -4.8443 -4.8009ZM 304.9698,494.7550 ZM 309.7707,491.0403 c -2.0854,-0.0000 -3.7147,1.6727 -3.7147 3.7147c 0.0000,1.9986 1.5641,3.7147 3.7147 3.7147c 2.1506,-0.0000 3.7147,-1.7161 3.7147 -3.7147c 0.0000,-1.9768 -1.5858,-3.7147 -3.7147 -3.7147ZM 309.7707,491.0403 ZM 308.7062,494.7550 c 0.0000,-0.5865 0.4779,-1.0644 1.0644 -1.0644c 0.5865,-0.0000 1.0644,0.4779 1.0644 1.0644c 0.0000,0.5865 -0.4779,1.0644 -1.0644 1.0644c -0.5865,-0.0000 -1.0644,-0.4779 -1.0644 -1.0644Z"></path></g><title>Sun</title></g></a><g stroke-linejoin="miter" stroke-opacity="1.0" fill-opacity="0.0" stroke="rgb(0,0,0)" stroke-width="1.2" fill="rgb(0,0,0)" stroke-linecap="butt" stroke-miterlimit="10.0"><path d="M 164.7943,498.2912 l 5.0702,-7.4359 "></path></g><g stroke-linejoin="miter" stroke-opacity="1.0" fill-opacity="0.0" stroke="rgb(0,0,0)" stroke-width="1.2" fill="rgb(0,0,0)" stroke-linecap="butt" stroke-miterlimit="10.0"><path d="M 215.4965,423.9320 l -5.0702,7.4359 "></path></g><a xlink:href="#Venus"><g><g stroke-linejoin="miter" stroke-opacity="1.0" fill-opacity="1.0" stroke="rgb(0,0,0)" stroke-width="0.5" fill="rgb(0,0,0)" stroke-linecap="butt" stroke-miterlimit="10.0"><path d="M 184.0846,465.2716 ZM 189.4937,462.8603 c -2.7371,-0.3910 -4.1492,-2.6937 -4.1492 -4.7574c -0.0000,-2.5851 2.0203,-4.7791 4.8226 -4.7791c 2.9761,-0.0000 4.7791,2.4330 4.7791 4.7791c 0.0000,2.2810 -1.6293,4.4098 -4.1709 4.7574l -0.0652,2.3896 h 2.3027 v 0.9993 h -2.3244 l -0.0652,2.6503 h -1.0210 l -0.0434,-2.6503 h -2.3244 v -0.9993 h 2.3027 ZM 189.4937,462.8603 ZM 190.1454,454.4099 c -2.0854,-0.0000 -3.7147,1.6727 -3.7147 3.6930c 0.0000,2.0203 1.5641,3.7364 3.7147 3.7364c 2.1506,-0.0000 3.7147,-1.7161 3.7147 -3.7364c 0.0000,-1.9768 -1.5858,-3.6930 -3.7147 -3.6930Z"></path></g><title>Venus</title></g></a><g stroke-linejoin="miter" stroke-opacity="1.0" fill-opacity="0.0" stroke="rgb(0,0,0)" stroke-width="1.2" fill="rgb(0,0,0)" stroke-linecap="butt" stroke-miterlimit="10.0"><path d="M 91.1487,181.7583 l 7.8319,4.4341 "></path></g><g stroke-linejoin="miter" stroke-opacity="1.0" fill-opacity="0.0" stroke="rgb(0,0,0)" stroke-width="1.2" fill="rgb(0,0,0)" stroke-linecap="butt" stroke-miterlimit="10.0"><path d="M 169.4680,226.0989 l -7.8319,-4.4341 "></path></g><a xlink:href="#Mean Node"><g><g stroke-linejoin="miter" stroke-opacity="1.0" fill-opacity="1.0" stroke="rgb(0,0,0)" stroke-width="0.5" fill="rgb(0,0,0)" stroke-linecap="butt" stroke-miterlimit="10.0"><path d="M 119.2548,211.1859 ZM 140.7147,207.4648 c 0.0000,1.6988 -1.1845,2.8833 -1.1845 2.8833c -1.1845,1.1845 -2.8833,1.1845 -2.8833 1.1845c -1.6988,-0.0000 -2.8833,-1.1845 -2.8833 -1.1845c -1.1845,-1.1845 -1.1845,-2.8833 -1.1845 -2.8833c -0.0000,-1.6294 1.1267,-2.8082 1.1267 -2.8082c 1.1267,-1.1787 2.7562,-1.2596 2.7562 -1.2596c -0.3698,-2.6233 -1.9183,-4.3451 -1.9183 -4.3451c -1.7103,-1.9183 -4.2296,-1.9183 -4.2296 -1.9183c -2.5193,-0.0000 -4.2296,1.9183 -4.2296 1.9183c -1.5485,1.7219 -1.9183,4.3451 -1.9183 4.3451c 1.6294,0.0809 2.7562,1.2596 2.7562 1.2596c 1.1267,1.1787 1.1267,2.8082 1.1267 2.8082c 0.0000,1.6988 -1.1845,2.8833 -1.1845 2.8833c -1.1845,1.1845 -2.8833,1.1845 -2.8833 1.1845c -1.6988,-0.0000 -2.8891,-1.1845 -2.8891 -1.1845c -1.1903,-1.1845 -1.1903,-2.8833 -1.1903 -2.8833c 0.0000,-1.5023 0.9707,-2.6464 0.9707 -2.6464c 0.9707,-1.1441 2.4615,-1.3752 2.4615 -1.3752c 0.3582,-2.9931 2.1379,-4.9692 2.1379 -4.9692c 1.9414,-2.1495 4.8421,-2.1495 4.8421 -2.1495c 2.9006,-0.0000 4.8421,2.1495 4.8421 2.1495c 1.7797,1.9761 2.1379,4.9692 2.1379 4.9692c 1.4792,0.2311 2.4499,1.3752 2.4499 1.3752c 0.9707,1.1441 0.9707,2.6464 0.9707 2.6464ZM 140.7147,207.4648 ZM 139.5591,207.4648 c 0.0000,-1.2250 -0.8436,-2.0686 -0.8436 -2.0686c -0.8436,-0.8436 -2.0686,-0.8436 -2.0686 -0.8436c -1.2134,-0.0000 -2.0686,0.8494 -2.0686 0.8494c -0.8552,0.8494 -0.8552,2.0628 -0.8552 2.0628c 0.0000,1.2250 0.8494,2.0686 0.8494 2.0686c 0.8494,0.8436 2.0743,0.8436 2.0743 0.8436c 1.2134,-0.0000 2.0628,-0.8494 2.0628 -0.8494c 0.8494,-0.8494 0.8494,-2.0628 0.8494 -2.0628ZM 139.5591,207.4648 ZM 126.8935,207.4648 c 0.0000,-1.2134 -0.8494,-2.0628 -0.8494 -2.0628c -0.8494,-0.8494 -2.0628,-0.8494 -2.0628 -0.8494c -1.2250,-0.0000 -2.0686,0.8436 -2.0686 0.8436c -0.8436,0.8436 -0.8436,2.0686 -0.8436 2.0686c 0.0000,1.2134 0.8494,2.0628 0.8494 2.0628c 0.8494,0.8494 2.0628,0.8494 2.0628 0.8494c 1.2250,-0.0000 2.0686,-0.8436 2.0686 -0.8436c 0.8436,-0.8436 0.8436,-2.0686 0.8436 -2.0686Z"></path></g><title>Mean Node</title></g></a><g stroke-linejoin="miter" stroke-opacity="1.0" fill-opacity="1.0" font-size="14.999994766540889px" stroke="rgb(0,0,0)" stroke-width="2.4" fill="rgb(0,0,0)" stroke-linecap="butt" stroke-miterlimit="10.0"><text dominant-baseline="middle" transform="matrix(1.0000,-0.0000,0.0000,1.0000,248.1239,129.2045)" stroke="none" text-anchor="middle">r</text></g><g stroke-linejoin="miter" stroke-opacity="1.0" fill-opacity="0.0" stroke="rgb(0,0,0)" stroke-width="1.2" fill="rgb(0,0,0)" stroke-linecap="butt" stroke-miterlimit="10.0"><path d="M 230.2506,70.3590 l 2.6156,8.6115 "></path></g><g stroke-linejoin="miter" stroke-opacity="1.0" fill-opacity="0.0" stroke="rgb(0,0,0)" stroke-width="1.2" fill="rgb(0,0,0)" stroke-linecap="butt" stroke-miterlimit="10.0"><path d="M 256.4067,156.4744 l -2.6156,-8.6115 "></path></g><a xlink:href="#Uranus"><g><g stroke-linejoin="miter" stroke-opacity="1.0" fill-opacity="1.0" stroke="rgb(0,0,0)" stroke-width="0.5" fill="rgb(0,0,0)" stroke-linecap="butt" stroke-miterlimit="10.0"><path d="M 236.6270,118.4782 ZM 242.2968,118.4565 c 0.0000,0.8038 0.4996,1.3034 1.1731 1.3034c 0.5865,-0.0000 1.1079,-0.4996 1.1079 -1.3034c 0.0000,-0.5214 -0.3910,-1.1513 -1.1296 -1.1513c -0.6951,-0.0000 -1.1513,0.6083 -1.1513 1.1513ZM 242.2968,118.4565 ZM 238.8862,107.9858 c 0.0000,-0.6300 -0.2824,-0.9558 -1.1731 -0.9558h -0.0652 c -0.1086,-0.0000 -0.1738,-0.0652 -0.1738 -0.1955v -0.4127 l 0.0434,-0.0434 c 0.0000,-0.0000 1.5206,0.0652 2.2810 0.0652l 0.6083,-0.0217 v 4.4967 h 2.2158 v -3.7799 l 0.4127,-0.3259 l 0.6951,0.0000 l 0.4127,0.3259 v 3.7799 h 2.1072 v -4.4967 l 0.6083,0.0217 c 0.7603,-0.0000 2.2810,-0.0652 2.2810 -0.0652l 0.0434,0.0434 v 0.4127 c 0.0000,0.1303 -0.0652,0.1955 -0.1738 0.1955h -0.0652 c -0.8907,-0.0000 -1.1731,0.3259 -1.1731 0.9558v 6.6908 c 0.0000,0.6083 0.2824,0.9558 1.1731 0.9558h 0.0652 c 0.1086,-0.0000 0.1738,0.0652 0.1738 0.1738v 0.4127 l -0.0434,0.0434 c 0.0000,-0.0000 -1.4989,-0.0652 -2.2810 -0.0652l -0.6083,0.0217 v -4.2795 h -2.1072 v 4.7791 c 0.8689,0.2390 1.5424,0.8472 1.5424 1.7596c 0.0000,1.3251 -1.2165,1.9768 -2.2810 1.9768c -1.0210,-0.0000 -2.2375,-0.6951 -2.2375 -1.9334c 0.0000,-1.0210 0.6300,-1.6075 1.4555 -1.8248v -4.7574 h -2.2158 v 4.2795 h -0.6083 c -0.7820,-0.0000 -2.2810,0.0434 -2.2810 0.0434l -0.0434,-0.0434 v -0.3910 c 0.0000,-0.1086 0.0652,-0.1738 0.1738 -0.1738h 0.0652 c 0.8907,-0.0000 1.1731,-0.3476 1.1731 -0.9558v -6.7125 Z"></path></g><title>Uranus</title></g></a><g stroke-linejoin="miter" stroke-opacity="1.0" fill-opacity="0.0" stroke="rgb(0,0,0)" stroke-width="1.2" fill="rgb(0,0,0)" stroke-linecap="butt" stroke-miterlimit="10.0"><path d="M 269.4971,61.9464 l 1.1439,8.9270 "></path></g><g stroke-linejoin="miter" stroke-opacity="1.0" fill-opacity="0.0" stroke="rgb(0,0,0)" stroke-width="1.2" fill="rgb(0,0,0)" stroke-linecap="butt" stroke-miterlimit="10.0"><path d="M 280.9357,151.2165 l -1.1439,-8.9270 "></path></g><a xlink:href="#Lilith"><g><g stroke-linejoin="miter" stroke-opacity="1.0" fill-opacity="1.0" stroke="rgb(0,0,0)" stroke-width="0.5" fill="rgb(0,0,0)" stroke-linecap="butt" stroke-miterlimit="10.0"><path d="M 268.0862,113.0876 ZM 280.3474,109.9674 c -1.3636,0.3467 -2.4730,0.3467 -2.4730 0.3467c -1.0863,-0.0000 -2.1610,-0.3236 -2.1610 -0.3236v 3.0971 l 3.4206,0.0000 v 1.4445 l -3.4206,-0.0000 v 3.2935 l -1.4445,-0.0000 v -3.2935 l -3.4206,-0.0000 v -1.4445 l 3.4206,0.0000 l 0.0000,-3.6864 c -1.8721,-0.9938 -3.0046,-2.7157 -3.0046 -2.7157c -1.1787,-1.8028 -1.1787,-3.8598 -1.1787 -3.8598c 0.0000,-3.0508 2.3806,-5.2928 2.3806 -5.2928c 2.3344,-2.1957 5.4083,-2.1957 5.4083 -2.1957c 1.1094,-0.0000 2.4730,0.3467 2.4730 0.3467l -0.0116,0.0924 c -2.3344,0.0231 -3.8482,2.4499 -3.8482 2.4499c -1.3174,2.1148 -1.3174,4.5994 -1.3174 4.5994c 0.0000,2.4846 1.3174,4.5994 1.3174 4.5994c 1.5139,2.4268 3.8482,2.4499 3.8482 2.4499Z"></path></g><title>Lilith</title></g></a><g stroke-linejoin="miter" stroke-opacity="1.0" fill-opacity="1.0" font-size="14.999994766540889px" stroke="rgb(0,0,0)" stroke-width="2.4" fill="rgb(0,0,0)" stroke-linecap="butt" stroke-miterlimit="10.0"><text dominant-baseline="middle" transform="matrix(1.0000,-0.0000,0.0000,1.0000,307.9806,121.6786)" stroke="none" text-anchor="middle">r</text></g><g stroke-linejoin="miter" stroke-opacity="1.0" fill-opacity="0.0" stroke="rgb(0,0,0)" stroke-width="1.2" fill="rgb(0,0,0)" stroke-linecap="butt" stroke-miterlimit="10.0"><path d="M 310.7302,60.2401 l -0.4024,8.9910 "></path></g><g stroke-linejoin="miter" stroke-opacity="1.0" fill-opacity="0.0" stroke="rgb(0,0,0)" stroke-width="1.2" fill="rgb(0,0,0)" stroke-linecap="butt" stroke-miterlimit="10.0"><path d="M 306.7064,150.1500 l 0.4024,-8.9910 "></path></g><a xlink:href="#Mars"><g><g stroke-linejoin="miter" stroke-opacity="1.0" fill-opacity="1.0" stroke="rgb(0,0,0)" stroke-width="0.5" fill="rgb(0,0,0)" stroke-linecap="butt" stroke-miterlimit="10.0"><path d="M 301.6908,112.5267 ZM 307.7516,104.5542 c -2.0854,-0.0000 -3.7147,1.6944 -3.7147 3.7364c 0.0000,1.9986 1.5641,3.7147 3.7147 3.7147c 2.1506,-0.0000 3.7147,-1.7161 3.7147 -3.7147c 0.0000,-1.9986 -1.5858,-3.7364 -3.7147 -3.7364ZM 307.7516,104.5542 ZM 312.5525,108.2906 c 0.0000,2.5851 -2.2158,4.7140 -4.8443 4.7140c -2.6068,-0.0000 -4.7574,-2.0637 -4.7574 -4.7140c 0.0000,-2.6503 2.0203,-4.8009 4.8226 -4.8009c 0.4779,-0.0000 0.8472,-0.0000 1.3903 0.1738l 2.5634,-4.6705 c -1.2165,0.6951 -2.0203,1.0644 -3.4975 1.3903l -0.6517,-0.7386 c 2.1072,-0.6083 3.1933,-1.0427 5.1702 -2.2592l 0.4562,0.2172 c 0.2607,2.1506 0.5431,3.2802 1.2817 5.3222l -0.9558,-0.0869 c -0.6083,-1.3034 -0.8038,-2.1072 -0.9993 -3.4323l -2.3678,4.6923 c 1.4772,0.7603 2.3896,2.2375 2.3896 4.1926Z"></path></g><title>Mars</title></g></a><g stroke-linejoin="miter" stroke-opacity="1.0" fill-opacity="1.0" font-size="14.999994766540889px" stroke="rgb(0,0,0)" stroke-width="2.4" fill="rgb(0,0,0)" stroke-linecap="butt" stroke-miterlimit="10.0"><text dominant-baseline="middle" transform="matrix(1.0000,-0.0000,0.0000,1.0000,349.1629,128.4039)" stroke="none" text-anchor="middle">r</text></g><g stroke-linejoin="miter" stroke-opacity="1.0" fill-opacity="0.0" stroke="rgb(0,0,0)" stroke-width="1.2" fill="rgb(0,0,0)" stroke-linecap="butt" stroke-miterlimit="10.0"><path d="M 366.1014,69.2825 l -2.4788,8.6519 "></path></g><g stroke-linejoin="miter" stroke-opacity="1.0" fill-opacity="0.0" stroke="rgb(0,0,0)" stroke-width="1.2" fill="rgb(0,0,0)" stroke-linecap="butt" stroke-miterlimit="10.0"><path d="M 341.3134,155.8016 l 2.4788,-8.6519 "></path></g><a xlink:href="#Chiron"><g><g stroke-linejoin="miter" stroke-opacity="1.0" fill-opacity="1.0" stroke="rgb(0,0,0)" stroke-width="0.5" fill="rgb(0,0,0)" stroke-linecap="butt" stroke-miterlimit="10.0"><path d="M 347.8484,118.4010 ZM 358.6072,119.7531 c 0.0000,1.6294 -1.7103,2.5655 -1.7103 2.5655c -1.4214,0.7743 -3.1895,0.7743 -3.1895 0.7743c -1.7450,-0.0000 -3.1780,-0.7858 -3.1780 -0.7858c -1.7219,-0.9476 -1.7219,-2.5539 -1.7219 -2.5539c 0.0000,-1.4445 1.3752,-2.3575 1.3752 -2.3575c 1.1441,-0.7512 2.7966,-0.9361 2.7966 -0.9361v -14.4684 l 1.4445,0.0000 l -0.0000,3.2242 l 2.8891,-2.7273 l 0.9938,1.0516 l -3.1780,2.9931 l 3.1780,3.0046 l -0.9938,1.0516 l -2.8891,-2.7388 v 8.6094 c 1.6410,0.1849 2.7966,0.9476 2.7966 0.9476c 1.3867,0.9129 1.3867,2.3459 1.3867 2.3459ZM 358.6072,119.7531 ZM 357.1627,119.7531 c 0.0000,-0.9014 -1.3290,-1.4561 -1.3290 -1.4561c -1.0516,-0.4391 -2.1263,-0.4391 -2.1263 -0.4391c -1.0978,0.0000 -2.1263,0.4276 -2.1263 0.4276c -1.3290,0.5431 -1.3290,1.4676 -1.3290 1.4676c 0.0000,0.9014 1.3290,1.4561 1.3290 1.4561c 1.0516,0.4391 2.1263,0.4391 2.1263 0.4391c 1.0978,-0.0000 2.1263,-0.4276 2.1263 -0.4276c 1.3290,-0.5431 1.3290,-1.4676 1.3290 -1.4676Z"></path></g><title>Chiron</title></g></a><g><a xlink:href="#Pisces"><g stroke-linejoin="miter" stroke-opacity="1.0" fill-opacity="1.0" stroke="rgb(0,0,0)" stroke-width="1.2" fill="rgb(173,216,230)" stroke-linecap="butt" stroke-miterlimit="10.0"><path d="M 489.9912,153.3600 l 47.4978,-36.6600 c -32.1759,-41.6880 -74.7584,-74.1720 -123.4675 -94.1870l -22.8043,55.4974 c 38.9673,16.0120 73.0333,41.9991 98.7740 75.3496Z"></path></g></a><title>Pisces</title></g><g stroke-linejoin="miter" stroke-opacity="1.0" fill-opacity="1.0" stroke="rgb(0,0,0)" stroke-width="1.2" fill="rgb(0,0,0)" stroke-linecap="butt" stroke-miterlimit="10.0"><path d="M 453.2184,94.5039 ZM 469.5110,94.9601 c -1.8899,-2.1506 -3.8776,-5.6046 -3.8776 -9.2867h -3.7799 c 0.0000,2.8023 -1.3034,6.3541 -3.8776 9.2867l -2.1180,0.1629 l -0.4888,-0.1629 c 2.6720,-2.8349 4.0405,-5.8979 4.0405 -9.2867h -3.9102 v -1.4989 h 3.9102 c -0.1629,-2.9327 -1.4989,-5.7350 -4.0405 -8.5047l 1.1079,-0.0978 l 1.4012,0.0978 c 2.3135,2.5091 3.6169,5.2788 3.9754 8.5047h 3.7799 c 0.3259,-3.2259 1.6618,-5.9957 3.9754 -8.5047l 1.2056,-0.1955 l 1.3360,0.1955 c -2.5742,2.7697 -3.9102,5.5720 -4.0731 8.5047h 3.9102 v 1.4989 h -3.9102 c 0.0000,3.3888 1.3686,6.4518 4.0731 9.2867l -1.3360,0.2281 Z"></path></g><g><a xlink:href="#Aquarius"><g stroke-linejoin="miter" stroke-opacity="1.0" fill-opacity="1.0" stroke="rgb(0,0,0)" stroke-width="1.2" fill="rgb(255,255,0)" stroke-linecap="butt" stroke-miterlimit="10.0"><path d="M 537.8572,268.0016 l 59.4643,-7.9996 c -7.0211,-52.1908 -27.6566,-101.6140 -59.8325 -143.3021l -47.4978,36.6600 c 25.7407,33.3504 42.2491,72.8890 47.8660 114.6416Z"></path></g></a><title>Aquarius</title></g><g stroke-linejoin="miter" stroke-opacity="1.0" fill-opacity="1.0" stroke="rgb(0,0,0)" stroke-width="1.2" fill="rgb(0,0,0)" stroke-linecap="butt" stroke-miterlimit="10.0"><path d="M 535.6154,204.9647 ZM 537.7660,192.6801 l 5.5720,-4.3338 c 0.0978,-0.0652 0.1629,-0.1303 0.2607 -0.1303c 0.0652,-0.0000 0.1303,0.0326 0.1955 0.1629l 2.3787,3.2585 l 3.9754,-3.2585 c 0.1303,-0.0978 0.1955,-0.1629 0.2933 -0.1629c 0.0652,-0.0000 0.1303,0.0652 0.2281 0.1955l 2.3461,3.2259 l 3.9102,-3.1933 c 0.1303,-0.1303 0.2607,-0.1955 0.3259 -0.1955c 0.0652,-0.0000 0.1303,0.0652 0.2607 0.2281l 3.0304,4.8552 l -1.4337,0.8798 l -2.3461,-3.2259 c -0.0978,-0.1303 -0.1303,-0.1955 -0.1955 -0.1955c -0.0652,-0.0000 -0.1955,0.0652 -0.2933 0.1629l -3.8125,3.1282 c -0.0652,0.0652 -0.1303,0.0652 -0.1629 0.0652c -0.0652,-0.0000 -0.0978,-0.0326 -0.1629 -0.0978l -2.1832,-3.0304 c -0.0652,-0.1629 -0.1303,-0.2281 -0.2281 -0.2281c -0.0652,-0.0000 -0.1303,0.0326 -0.2281 0.0978l -3.8450,3.1933 c -0.0652,0.0652 -0.1303,0.0652 -0.1629 0.0652c -0.0652,-0.0000 -0.0978,-0.0326 -0.1629 -0.0978l -2.2158,-3.0956 c -0.0652,-0.1303 -0.1303,-0.1629 -0.1955 -0.1629c -0.0652,-0.0000 -0.0978,0.0326 -0.1955 0.0978l -4.1057,3.3237 ZM 537.7660,192.6801 ZM 537.7660,202.1949 l 5.5395,-4.3338 c 0.1303,-0.0652 0.1955,-0.1303 0.2607 -0.1303c 0.0978,-0.0000 0.1629,0.0652 0.2281 0.1629l 2.3787,3.2585 l 3.9754,-3.2585 c 0.1303,-0.0978 0.1955,-0.1629 0.2607 -0.1629c 0.0978,-0.0000 0.1303,0.0652 0.2607 0.1955l 2.3135,3.2259 l 3.9102,-3.1933 c 0.1629,-0.1303 0.2607,-0.1955 0.3584 -0.1955c 0.0652,-0.0000 0.1303,0.0652 0.2281 0.2281l 3.0630,4.8552 l -1.4337,0.8798 l -2.3461,-3.2259 c -0.0978,-0.1303 -0.1303,-0.1955 -0.2281 -0.1955c -0.0326,-0.0000 -0.1629,0.0978 -0.2607 0.1955l -3.8125,3.0956 c -0.0978,0.0652 -0.1303,0.0978 -0.1629 0.0978c -0.0652,-0.0000 -0.0978,-0.0652 -0.1629 -0.1303l -2.2158,-3.0304 c -0.0652,-0.1303 -0.0978,-0.2281 -0.1955 -0.2281c -0.0652,-0.0000 -0.1303,0.0326 -0.2281 0.1303l -3.8450,3.1608 c -0.0978,0.0652 -0.1303,0.0978 -0.1629 0.0978c -0.0652,-0.0000 -0.0978,-0.0326 -0.1629 -0.1303l -2.2484,-3.0956 c -0.0652,-0.0978 -0.0978,-0.1629 -0.1629 -0.1629c -0.0652,-0.0000 -0.1303,0.0326 -0.1955 0.0978l -4.1057,3.3237 Z"></path></g><g><a xlink:href="#Capricorn"><g stroke-linejoin="miter" stroke-opacity="1.0" fill-opacity="1.0" stroke="rgb(0,0,0)" stroke-width="1.2" fill="rgb(0,100,0)" stroke-linecap="butt" stroke-miterlimit="10.0"><path d="M 521.9896,391.2172 l 55.4974,22.8043 c 20.0150,-48.7091 26.8557,-101.8287 19.8345 -154.0195l -59.4643,7.9996 c 5.6169,41.7527 0.1443,84.2483 -15.8676 123.2156Z"></path></g></a><title>Capricorn</title></g><g stroke-linejoin="miter" stroke-opacity="1.0" fill-opacity="1.0" stroke="rgb(0,0,0)" stroke-width="1.2" fill="rgb(0,0,0)" stroke-linecap="butt" stroke-miterlimit="10.0"><path d="M 553.8910,342.0617 ZM 577.3196,337.4672 c 0.0000,-1.7596 -0.9776,-3.3888 -2.6068 -3.3888c -1.8248,0.0000 -3.1282,2.1180 -4.1709 4.9203c 1.3360,1.4663 2.9978,1.6944 4.3664 1.6944c 1.2382,-0.0000 2.4113,-1.2708 2.4113 -3.2259ZM 577.3196,337.4672 ZM 565.6542,324.9545 c -1.4012,1.6293 -3.8450,5.8001 -3.8450 11.6655l -1.3360,0.3910 l -0.4888,-0.3910 c 0.0000,-3.9754 -1.2382,-8.9283 -1.7922 -9.9710c -0.7495,-1.4337 -1.1079,-1.6618 -2.3787 -2.2158l 0.2933,-0.7169 c 1.4663,0.0326 2.9327,0.6191 3.4214 1.4989c 0.6191,1.1731 1.1405,3.2259 1.5967 6.0282c 0.7169,-3.0956 1.8573,-5.6046 3.4866 -7.5272l 2.4113,-0.4888 c 1.6618,3.7147 1.5641,10.3295 2.3787 13.3599c 1.1731,-2.2810 3.8776,-4.0405 5.9631 -4.0405c 2.7371,0.0000 4.3990,2.0529 4.3990 4.7900c -0.0000,2.7371 -2.3135,4.7248 -4.8226 4.7248c -1.7596,-0.0000 -3.4214,-0.4562 -4.7248 -1.7922c -2.0854,5.4091 -4.5945,5.4743 -6.3215 5.4743h -1.6944 v -1.5315 h 0.8146 c 3.2585,-0.0000 3.8125,-1.0427 5.5069 -5.9631c -0.8798,-1.5315 -1.0753,-1.5315 -1.6944 -6.4518c -0.4236,-3.3237 -0.6191,-5.6698 -1.1731 -6.8429Z"></path></g><g><a xlink:href="#Sagittarius"><g stroke-linejoin="miter" stroke-opacity="1.0" fill-opacity="1.0" stroke="rgb(0,0,0)" stroke-width="1.2" fill="rgb(255,0,0)" stroke-linecap="butt" stroke-miterlimit="10.0"><path d="M 446.6400,489.9912 l 36.6600,47.4978 c 41.6880,-32.1759 74.1720,-74.7584 94.1870 -123.4675l -55.4974,-22.8043 c -16.0120,38.9673 -41.9991,73.0333 -75.3496 98.7740Z"></path></g></a><title>Sagittarius</title></g><g stroke-linejoin="miter" stroke-opacity="1.0" fill-opacity="1.0" stroke="rgb(0,0,0)" stroke-width="1.2" fill="rgb(0,0,0)" stroke-linecap="butt" stroke-miterlimit="10.0"><path d="M 504.2253,472.5088 ZM 523.4179,454.8803 l 0.1955,0.2281 c -0.1955,1.0427 -0.3259,2.0203 -0.3259 2.9978c 0.0000,1.5315 0.2933,2.9652 0.7169 4.2686l -1.3686,0.3259 c -0.5865,-1.2708 -0.8472,-2.7046 -0.8472 -3.9102c 0.0000,-0.3584 0.0326,-0.6843 0.0652 -0.9776l -8.1789,8.1463 l 3.8776,3.9102 l -1.3034,1.3034 l -3.8776,-3.9428 l -5.7676,5.7024 l -1.2708,-1.3034 l 5.7350,-5.7024 l -3.8776,-3.8776 l 1.3034,-1.3034 l 3.8776,3.9102 l 8.2114,-8.1137 c -0.3584,0.0326 -0.7495,0.0652 -1.1405 0.0652c -1.2056,-0.0000 -2.5091,-0.2281 -3.6821 -0.6517l 0.2607,-1.3686 c 1.1079,0.3584 2.6394,0.5865 4.3012 0.5865c 1.0101,-0.0000 2.0854,-0.0978 3.0956 -0.2933Z"></path></g><g><a xlink:href="#Scorpio"><g stroke-linejoin="miter" stroke-opacity="1.0" fill-opacity="1.0" stroke="rgb(0,0,0)" stroke-width="1.2" fill="rgb(173,216,230)" stroke-linecap="butt" stroke-miterlimit="10.0"><path d="M 331.9984,537.8572 l 7.9996,59.4643 c 52.1908,-7.0211 101.6140,-27.6566 143.3021 -59.8325l -36.6600,-47.4978 c -33.3504,25.7407 -72.8890,42.2491 -114.6416 47.8660Z"></path></g></a><title>Scorpio</title></g><g stroke-linejoin="miter" stroke-opacity="1.0" fill-opacity="1.0" stroke="rgb(0,0,0)" stroke-width="1.2" fill="rgb(0,0,0)" stroke-linecap="butt" stroke-miterlimit="10.0"><path d="M 392.9662,555.6715 ZM 394.3999,537.8801 l 1.4012,-0.4888 l 0.7495,-0.0652 c 0.7169,1.0427 1.1731,2.2484 1.4337 3.5844c 0.5539,-1.4337 1.3034,-2.6394 2.1506 -3.5844l 2.3461,-0.3910 c 0.8472,0.9776 1.3686,2.3787 1.5967 4.1709c 0.4562,-1.3034 1.2056,-2.5416 2.2484 -3.7799l 2.3787,-0.3910 c 1.0101,1.3360 1.4989,2.9327 1.4989 4.7574l 0.0000,11.4374 c 0.0000,2.6394 0.2281,4.0080 1.1079 4.8552l 0.8146,0.8146 c 0.1955,0.1955 0.3584,0.2607 0.4562 0.2607c 0.2607,-0.0000 0.3259,-0.3910 0.3259 -0.7820v -0.2933 l 0.4888,-0.5214 l 0.2607,3.9102 l -3.8450,-0.2281 l 0.5214,-0.5539 c 0.1303,0.0326 0.2607,0.0326 0.3584 0.0326c 0.3584,0.0000 0.6517,-0.0652 0.6517 -0.2607c 0.0000,-0.1303 -0.0652,-0.2933 -0.2933 -0.4888l -1.1731,-1.1731 c -1.2708,-1.2056 -2.1180,-2.9001 -2.1180 -5.5720v -10.4598 c 0.0000,-1.8899 -0.2607,-3.2259 -0.8146 -4.0080c -1.3686,1.5641 -2.3135,3.5192 -2.8675 5.9305v 10.6553 l -2.0529,1.0101 l -0.3584,-0.5865 v -12.3497 c 0.0000,-2.2484 -0.2933,-3.8125 -0.8146 -4.6597c -1.3360,1.4663 -2.2810,3.3237 -2.8675 5.5069l 0.0000,11.0789 l -2.0854,1.0101 l -0.3584,-0.5865 v -13.0992 c 0.0000,-1.8899 -0.3910,-3.4540 -1.1405 -4.6923Z"></path></g><g><a xlink:href="#Libra"><g stroke-linejoin="miter" stroke-opacity="1.0" fill-opacity="1.0" stroke="rgb(0,0,0)" stroke-width="1.2" fill="rgb(255,255,0)" stroke-linecap="butt" stroke-miterlimit="10.0"><path d="M 208.7828,521.9896 l -22.8043,55.4974 c 48.7091,20.0150 101.8287,26.8557 154.0195 19.8345l -7.9996,-59.4643 c -41.7527,5.6169 -84.2483,0.1443 -123.2156 -15.8676Z"></path></g></a><title>Libra</title></g><g stroke-linejoin="miter" stroke-opacity="1.0" fill-opacity="1.0" stroke="rgb(0,0,0)" stroke-width="1.2" fill="rgb(0,0,0)" stroke-linecap="butt" stroke-miterlimit="10.0"><path d="M 253.4904,577.8736 ZM 255.6411,570.4442 c -0.2933,-0.0000 -0.4888,-0.2607 -0.4888 -0.5539c 0.0000,-0.5214 0.4236,-1.2056 0.8146 -1.2056h 5.1484 c -0.9776,-1.0101 -1.7270,-2.0854 -1.7270 -3.3563c -0.0000,-3.0956 2.9001,-5.7676 6.2237 -5.7676c 3.2259,-0.0000 6.0608,2.4765 6.0608 5.7024c 0.0000,1.2708 -0.7495,2.4113 -1.7596 3.4214l 5.4743,0.0000 c 0.3584,-0.0000 0.4888,0.2933 0.4888 0.5539c 0.0000,0.3910 -0.4562,1.2056 -0.8798 1.2056l -7.5923,-0.0000 l 0.1629,-1.6293 c 1.4663,-0.6843 2.0203,-2.0203 2.0203 -3.4540c 0.0000,-2.2484 -1.8573,-4.2035 -4.0405 -4.2035c -2.2158,-0.0000 -4.0731,1.9551 -4.0731 4.2035c 0.0000,1.4337 0.5539,2.6394 1.9877 3.4540l -0.1955,1.6293 h -7.6249 ZM 255.6411,570.4442 ZM 255.6411,576.0162 c -0.2933,-0.0000 -0.4888,-0.2607 -0.4888 -0.5539c 0.0000,-0.4888 0.4236,-1.1731 0.8146 -1.1731h 19.3881 c 0.3584,-0.0000 0.4888,0.2607 0.4888 0.5539c 0.0000,0.3584 -0.4562,1.1731 -0.8798 1.1731l -19.3229,-0.0000 Z"></path></g><g><a xlink:href="#Virgo"><g stroke-linejoin="miter" stroke-opacity="1.0" fill-opacity="1.0" stroke="rgb(0,0,0)" stroke-width="1.2" fill="rgb(0,100,0)" stroke-linecap="butt" stroke-miterlimit="10.0"><path d="M 110.0088,446.6400 l -47.4978,36.6600 c 32.1759,41.6880 74.7584,74.1720 123.4675 94.1870l 22.8043,-55.4974 c -38.9673,-16.0120 -73.0333,-41.9991 -98.7740 -75.3496Z"></path></g></a><title>Virgo</title></g><g stroke-linejoin="miter" stroke-opacity="1.0" fill-opacity="1.0" stroke="rgb(0,0,0)" stroke-width="1.2" fill="rgb(0,0,0)" stroke-linecap="butt" stroke-miterlimit="10.0"><path d="M 123.7765,520.9415 ZM 141.3398,520.4527 c 1.6944,-1.6944 3.2911,-4.1709 3.2911 -7.4946c 0.0000,-1.4989 -0.3259,-2.9001 -0.9776 -4.2686c -0.9124,1.1079 -1.7270,2.6068 -2.3135 4.4967v 7.2665 ZM 141.3398,520.4527 ZM 135.1487,520.5178 l -2.0854,1.0101 l -0.3584,-0.5865 v -12.2520 c -0.0000,-2.2810 -0.2607,-3.8450 -0.7820 -4.7248c -1.3034,1.4663 -2.3135,3.2911 -2.9652 5.4417l -0.0000,11.1115 l -2.0529,1.0101 l -0.3910,-0.5865 v -13.3273 c 0.0000,-1.5967 -0.3910,-3.0956 -1.1405 -4.4642l 1.4337,-0.4888 l 0.7495,-0.0652 c 0.6843,0.9124 1.1405,2.1180 1.4012 3.6169c 0.6191,-1.5315 1.4337,-2.7371 2.2484 -3.6169l 0.7169,-0.5865 l 1.0753,0.2281 c 0.8146,1.0427 1.9225,2.4765 2.1506 4.2361c 0.3910,-1.3360 1.2382,-2.6394 2.3135 -3.8776l 1.7922,-0.3584 c 0.9776,1.3686 2.0854,2.9001 2.0854 4.5619v 3.5192 c 0.4888,-1.4012 1.0753,-2.5091 1.6293 -3.2911l 2.1832,-0.5539 c 1.3034,2.0203 1.9551,4.1383 1.9551 6.3541c 0.0000,4.3012 -3.1282,7.5272 -5.5720 9.4823c 0.1303,2.0529 0.6517,3.0956 1.9551 4.5619l -0.5539,0.4562 c -1.6618,-0.9450 -2.7697,-2.3135 -3.4866 -4.1057c -1.1405,0.6517 -2.5742,1.1079 -4.2035 1.3686l -0.2933,-1.0753 c 1.6293,-0.4888 3.0304,-1.1731 4.1383 -1.8899c -0.1303,-0.7820 -0.1955,-1.5641 -0.1955 -2.3787l 0.0000,-11.1767 c 0.0000,-1.8248 -0.2607,-3.1933 -0.7820 -4.1057c -1.3034,1.3686 -2.3461,3.3563 -2.9652 5.8979v 10.6553 Z"></path></g><g><a xlink:href="#Leo"><g stroke-linejoin="miter" stroke-opacity="1.0" fill-opacity="1.0" stroke="rgb(0,0,0)" stroke-width="1.2" fill="rgb(255,0,0)" stroke-linecap="butt" stroke-miterlimit="10.0"><path d="M 62.1428,331.9984 l -59.4643,7.9996 c 7.0211,52.1908 27.6566,101.6140 59.8325 143.3021l 47.4978,-36.6600 c -25.7407,-33.3504 -42.2491,-72.8890 -47.8660 -114.6416Z"></path></g></a><title>Leo</title></g><g stroke-linejoin="miter" stroke-opacity="1.0" fill-opacity="1.0" stroke="rgb(0,0,0)" stroke-width="1.2" fill="rgb(0,0,0)" stroke-linecap="butt" stroke-miterlimit="10.0"><path d="M 39.1964,411.3441 ZM 45.4201,403.2630 c -1.8248,-0.0000 -3.3237,1.4989 -3.3237 3.4214c 0.0000,2.0203 1.4989,3.4540 3.3563 3.4540c 1.8573,-0.0000 3.3563,-1.4663 3.3563 -3.4214c 0.0000,-1.8899 -1.3686,-3.4540 -3.3888 -3.4540ZM 45.4201,403.2630 ZM 54.9675,412.3869 c -0.0000,1.6293 0.8798,2.5416 1.9225 2.5416c 1.3360,-0.0000 2.2484,-0.3584 3.6169 -1.6293l 0.7169,0.6191 c -1.5315,1.8899 -2.9978,2.8023 -4.3664 2.8023c -2.5091,-0.0000 -4.2686,-1.6944 -4.2686 -3.9428c 0.0000,-2.9652 1.8573,-5.5395 3.6169 -7.4946c 1.6293,-1.7596 2.3135,-3.3237 2.3135 -6.5170c 0.0000,-3.0630 -2.6394,-5.8979 -5.7024 -5.8979c -2.8675,-0.0000 -5.2788,1.8248 -5.2788 4.4642c 0.0000,2.3461 0.3259,3.8450 1.7596 5.6046c 1.0753,1.3034 1.5315,2.4765 1.5315 3.6821c 0.0000,2.6720 -2.4765,5.1484 -5.3114 5.1484c -2.7371,-0.0000 -5.0507,-2.1180 -5.0507 -5.0833c -0.0000,-2.7697 2.2158,-5.0181 4.9529 -5.0181c 0.5214,-0.0000 0.8146,0.0000 1.3686 0.1303c -1.3034,-1.6944 -1.6618,-2.8675 -1.6618 -4.1709c 0.0000,-3.6495 3.7147,-6.2889 7.5272 -6.2889c 5.3440,-0.0000 8.1789,3.6495 8.1789 6.8429c 0.0000,3.2259 -1.1079,5.8327 -2.9652 7.9508c -2.0529,2.3135 -2.9001,4.3338 -2.9001 6.2563Z"></path></g><g><a xlink:href="#Cancer"><g stroke-linejoin="miter" stroke-opacity="1.0" fill-opacity="1.0" stroke="rgb(0,0,0)" stroke-width="1.2" fill="rgb(173,216,230)" stroke-linecap="butt" stroke-miterlimit="10.0"><path d="M 78.0104,208.7828 l -55.4974,-22.8043 c -20.0150,48.7091 -26.8557,101.8287 -19.8345 154.0195l 59.4643,-7.9996 c -5.6169,-41.7527 -0.1443,-84.2483 15.8676 -123.2156Z"></path></g></a><title>Cancer</title></g><g stroke-linejoin="miter" stroke-opacity="1.0" fill-opacity="1.0" stroke="rgb(0,0,0)" stroke-width="1.2" fill="rgb(0,0,0)" stroke-linecap="butt" stroke-miterlimit="10.0"><path d="M 18.5746,275.6483 ZM 25.1568,266.8829 c 1.9877,0.0000 3.4540,-1.5967 3.4540 -3.4540c 0.0000,-1.9551 -1.6293,-3.4214 -3.4866 -3.4214c -1.9551,-0.0000 -3.3888,1.4989 -3.3888 3.3888c 0.0000,2.0203 1.5641,3.4866 3.4214 3.4866ZM 25.1568,266.8829 ZM 25.2872,268.1863 c -2.6394,0.0000 -5.1159,-2.1180 -5.1159 -4.9529c 0.0000,-2.1506 1.5641,-3.5192 4.0731 -4.8878c 2.4765,-1.3686 5.6372,-2.0203 9.3845 -2.0203c 3.2585,-0.0000 6.7451,0.8472 10.3621 2.4765l -0.0652,0.6191 l -0.5865,1.1079 c -3.6495,-1.5967 -7.1687,-2.3787 -10.5576 -2.3787c -2.3461,-0.0000 -4.2686,0.3259 -5.7676 0.9450c 2.4113,1.1731 3.1282,2.6394 3.1282 4.0731c 0.0000,2.6720 -2.0854,5.0181 -4.8552 5.0181ZM 25.2872,268.1863 ZM 39.2662,264.1132 c -1.9877,-0.0000 -3.4540,1.6293 -3.4540 3.4866c 0.0000,1.8248 1.4989,3.4214 3.4866 3.4214c 1.7922,-0.0000 3.3888,-1.3686 3.3888 -3.4214c 0.0000,-1.9877 -1.5641,-3.4866 -3.4214 -3.4866ZM 39.2662,264.1132 ZM 39.2987,262.7772 c 2.6720,-0.0000 4.9529,2.0203 4.9529 4.7574c 0.0000,2.1506 -1.5641,3.7799 -4.0731 5.1159c -2.4765,1.3686 -5.6046,2.0529 -9.3845 2.0529c -3.2585,-0.0000 -6.6799,-0.8472 -10.2969 -2.4765l -0.0326,-0.6843 l 0.6191,-1.0753 c 3.6169,1.5967 7.1361,2.4113 10.5576 2.4113c 2.3787,-0.0000 4.2686,-0.3259 5.7676 -0.9450c -1.5641,-0.7820 -3.1608,-2.0203 -3.1608 -4.3990c 0.0000,-2.7371 2.3461,-4.7574 5.0507 -4.7574Z"></path></g><g><a xlink:href="#Gemini"><g stroke-linejoin="miter" stroke-opacity="1.0" fill-opacity="1.0" stroke="rgb(0,0,0)" stroke-width="1.2" fill="rgb(255,255,0)" stroke-linecap="butt" stroke-miterlimit="10.0"><path d="M 153.3600,110.0088 l -36.6600,-47.4978 c -41.6880,32.1759 -74.1720,74.7584 -94.1870 123.4675l 55.4974,22.8043 c 16.0120,-38.9673 41.9991,-73.0333 75.3496 -98.7740Z"></path></g></a><title>Gemini</title></g><g stroke-linejoin="miter" stroke-opacity="1.0" fill-opacity="1.0" stroke="rgb(0,0,0)" stroke-width="1.2" fill="rgb(0,0,0)" stroke-linecap="butt" stroke-miterlimit="10.0"><path d="M 73.6331,145.3804 ZM 79.6940,144.1747 l -0.0000,-15.8689 c -1.4989,-0.1629 -2.9652,-0.4888 -4.4642 -0.8798v -1.5641 c 2.7371,0.7820 6.1260,1.1731 10.1014 1.1731c 4.0080,0.0000 7.3642,-0.3910 10.1014 -1.1731v 1.5641 c -1.4663,0.3910 -2.9652,0.7495 -4.4316 0.9450v 15.8038 c 1.3686,0.1955 2.8349,0.4888 4.4316 0.9124v 1.5315 c -3.1282,-0.8146 -6.4844,-1.2382 -10.1014 -1.2382c -3.5844,-0.0000 -6.9732,0.4236 -10.1014 1.2382v -1.5315 c 1.5967,-0.4236 3.0630,-0.7169 4.4642 -0.9124ZM 79.6940,144.1747 ZM 82.1053,144.0118 c 0.9776,-0.0978 2.0529,-0.1629 3.2259 -0.1629c 1.2056,-0.0000 2.2810,0.0652 3.2259 0.1629v -15.5757 c -0.8798,0.0652 -1.9551,0.0978 -3.2259 0.0978c -1.2382,-0.0000 -2.3135,-0.0326 -3.2259 -0.0978v 15.5757 Z"></path></g><g><a xlink:href="#Taurus"><g stroke-linejoin="miter" stroke-opacity="1.0" fill-opacity="1.0" stroke="rgb(0,0,0)" stroke-width="1.2" fill="rgb(0,100,0)" stroke-linecap="butt" stroke-miterlimit="10.0"><path d="M 268.0016,62.1428 l -7.9996,-59.4643 c -52.1908,7.0211 -101.6140,27.6566 -143.3021 59.8325l 36.6600,47.4978 c 33.3504,-25.7407 72.8890,-42.2491 114.6416 -47.8660Z"></path></g></a><title>Taurus</title></g><g stroke-linejoin="miter" stroke-opacity="1.0" fill-opacity="1.0" stroke="rgb(0,0,0)" stroke-width="1.2" fill="rgb(0,0,0)" stroke-linecap="butt" stroke-miterlimit="10.0"><path d="M 183.1327,59.0570 ZM 195.9712,60.8491 c 3.4866,-0.0000 6.0608,-2.7046 6.0608 -5.9305c 0.0000,-3.3237 -2.6068,-5.9957 -6.0608 -5.9957c -3.2911,-0.0000 -6.0608,2.5416 -6.0608 5.9957c 0.0000,3.2259 2.5742,5.9305 6.0608 5.9305ZM 195.9712,60.8491 ZM 192.4846,47.8803 c -1.5641,-0.6517 -2.3787,-1.3360 -3.6495 -3.6495l -0.7169,-1.3034 c -0.9124,-1.5967 -1.9225,-2.4113 -3.0630 -2.4113h -0.3259 v -1.5315 l 0.9124,-0.0000 c 1.5967,-0.0000 3.0630,1.2708 4.3664 3.5518l 1.0101,1.7270 c 0.6843,1.1731 1.3686,1.9877 2.0854 2.4439c 0.7495,0.4562 1.6944,0.6843 2.8675 0.6843c 1.1731,-0.0000 2.1180,-0.2281 2.8675 -0.6843c 0.7169,-0.4562 1.4337,-1.2708 2.0854 -2.4439l 1.0427,-1.7270 c 1.3034,-2.2810 2.7371,-3.5518 4.3338 -3.5518l 0.9124,-0.0000 v 1.5315 h -0.3259 c -1.1405,-0.0000 -2.1506,0.8146 -3.0630 2.4113l -0.7169,1.3034 c -1.1405,2.0854 -1.9225,2.9327 -3.6495 3.6495c 2.3787,1.3034 4.3990,3.6495 4.3990 7.0058c 0.0000,4.1709 -3.5518,7.8204 -7.8856 7.8204c -4.2686,-0.0000 -7.8856,-3.6169 -7.8856 -7.8204c 0.0000,-3.3563 2.0203,-5.7024 4.3990 -7.0058Z"></path></g><g><a xlink:href="#Aries"><g stroke-linejoin="miter" stroke-opacity="1.0" fill-opacity="1.0" stroke="rgb(0,0,0)" stroke-width="1.2" fill="rgb(255,0,0)" stroke-linecap="butt" stroke-miterlimit="10.0"><path d="M 391.2172,78.0104 l 22.8043,-55.4974 c -48.7091,-20.0150 -101.8287,-26.8557 -154.0195 -19.8345l 7.9996,59.4643 c 41.7527,-5.6169 84.2483,-0.1443 123.2156 15.8676Z"></path></g></a><title>Aries</title></g><g stroke-linejoin="miter" stroke-opacity="1.0" fill-opacity="1.0" stroke="rgb(0,0,0)" stroke-width="1.2" fill="rgb(0,0,0)" stroke-linecap="butt" stroke-miterlimit="10.0"><path d="M 319.9527,40.0808 ZM 333.2800,44.0236 c 0.0000,-10.3621 -2.7046,-22.4837 -7.0384 -22.4837c -1.5315,-0.0000 -2.5742,1.4663 -2.5742 3.5844c 0.0000,1.4012 0.4562,2.8675 1.3686 4.3664l -0.7169,0.2607 l -1.7596,-0.2607 c -0.8798,-1.6293 -1.3360,-3.1282 -1.3360 -4.5293c 0.0000,-2.9978 2.4113,-5.1159 4.9529 -5.1159c 5.0181,-0.0000 7.2991,8.0811 8.1463 15.2498h 0.3259 c 0.6843,-5.5395 2.6068,-15.2824 8.3418 -15.2824c 2.6720,-0.0000 4.7574,2.2484 4.7574 5.0833c 0.0000,1.4337 -0.4562,2.9652 -1.3360 4.5945l -0.7495,0.2933 l -1.6944,-0.2933 c 0.9124,-1.6293 1.3360,-3.0956 1.3360 -4.4642c 0.0000,-2.2484 -1.0101,-3.6495 -2.5742 -3.6495c -4.3012,-0.0000 -7.0058,12.1868 -7.0058 22.2230l -2.0529,1.0101 Z"></path></g></svg>
